HIERARCHY
ROOT ui
{
	 OFFSET 0 0 0
	 CHANNELS 3 XPosition YPosition Z Position
	 EndSite
	 {
	 OFFSET 0 -1 0
	 }
}
ROOT li
{
	 OFFSET 0 0 0
	 CHANNELS 3 XPosition YPosition Z Position
	 EndSite
	 {
	 OFFSET 0 -1 0
	 }
}
ROOT ul
{
	 OFFSET 0 0 0
	 CHANNELS 3 XPosition YPosition Z Position
	 EndSite
	 {
	 OFFSET 0 -1 0
	 }
}
ROOT ll
{
	 OFFSET 0 0 0
	 CHANNELS 3 XPosition YPosition Z Position
	 EndSite
	 {
	 OFFSET 0 -1 0
	 }
}
ROOT tt
{
	 OFFSET 0 0 0
	 CHANNELS 3 XPosition YPosition Z Position
	 EndSite
	 {
	 OFFSET 0 -1 0
	 }
}
ROOT tb
{
	 OFFSET 0 0 0
	 CHANNELS 3 XPosition YPosition Z Position
	 EndSite
	 {
	 OFFSET 0 -1 0
	 }
}
ROOT td
{
	 OFFSET 0 0 0
	 CHANNELS 3 XPosition YPosition Z Position
	 EndSite
	 {
	 OFFSET 0 -1 0
	 }
}
ROOT v
{
	 OFFSET 0 0 0
	 CHANNELS 3 XPosition YPosition Z Position
	 EndSite
	 {
	 OFFSET 0 -1 0
	 }
}
ROOT bn
{
	 OFFSET 0 0 0
	 CHANNELS 3 XPosition YPosition Z Position
	 EndSite
	 {
	 OFFSET 0 -1 0
	 }
}
MOTION
Frames: 27
Frame Time: 0.002
0.012712754249572755	0.0012517369985580444	0		0.5333275756835938	-2.851847900390625	0		-0.95253173828125	0.07322413635253906	0		-0.06232705688476563	-3.34611181640625	0		1.863036865234375	-1.7408853759765626	0		3.119353271484375	-0.6640909423828125	0		4.4900146484375	-0.26163931274414065	0		5.92297998046875	0.4714049377441406	0		-0.3863310546875	5.89616650390625	0		
0.008290800094604492	-0.002580729007720947	0		0.5036072692871094	-2.85245458984375	0		-1.02688330078125	0.07530806732177735	0		-0.07525563812255859	-3.3598427734375	0		1.90041943359375	-1.7444168701171876	0		3.131219482421875	-0.6364733276367187	0		4.4877568359375	-0.24902066040039061	0		5.916138671875	0.4377174987792969	0		-0.3567772216796875	5.91700048828125	0		
0.008051383972167968	-0.0025172019004821777	0		0.5378793334960937	-2.866852294921875	0		-1.02991650390625	0.09252286529541015	0		-0.08803806304931641	-3.373629638671875	0		1.8620194091796876	-1.7411280517578125	0		3.130908203125	-0.6367646484375	0		4.49055859375	-0.2435013427734375	0		5.9032548828125	0.46296627807617186	0		-0.3772729797363281	5.92334814453125	0		
0.007949466228485108	-0.0025127699375152588	0		0.521397216796875	-2.8727177734375	0		-1.0178685302734376	0.10449877166748046	0		-0.08170548248291015	-3.390695556640625	0		1.8678336181640625	-1.732395751953125	0		3.1231591796875	-0.6010081787109375	0		4.4826533203125	-0.22489137268066406	0		5.8933984375	0.503659423828125	0		-0.34167526245117186	5.92798486328125	0		
0.01202997875213623	0.0013847939968109132	0		0.5402543334960938	-2.863050048828125	0		-1.004695068359375	0.1153943862915039	0		-0.0989695816040039	-3.386541015625	0		1.874796142578125	-1.723723876953125	0		3.145964599609375	-0.61565185546875	0		4.483888671875	-0.20641648864746093	0		5.89397900390625	0.46962982177734375	0		-0.3420240783691406	5.92897705078125	0		
0.012195085525512695	0.0012701510190963746	0		0.5141866455078125	-2.8599052734375	0		-1.0163993530273439	0.12551778411865233	0		-0.10520712280273438	-3.3935732421875	0		1.863025390625	-1.7048729248046874	0		3.13259619140625	-0.5718988647460937	0		4.47912939453125	-0.19889430236816405	0		5.9118515625	0.45238150024414064	0		-0.34128756713867187	5.92989599609375	0		
0.008436691284179688	-0.0028554580211639403	0		0.5651317749023438	-2.868732666015625	0		-1.018883544921875	0.14346653747558594	0		-0.11029161834716797	-3.400676513671875	0		1.857301025390625	-1.6941339111328124	0		3.12494482421875	-0.5632442016601562	0		4.4767255859375	-0.17241600036621094	0		5.90547705078125	0.41852069091796873	0		-0.37553689575195315	5.926171875	0		
-0.0681410140991211	-0.0011595230102539062	0		0.5025055236816406	-2.853248779296875	0		-1.0093720703125	0.151202392578125	0		-0.08325396728515624	-3.41022509765625	0		1.86468603515625	-1.685591064453125	0		3.105610107421875	-0.53847265625	0		4.46527490234375	-0.1598420867919922	0		5.89847802734375	0.38641375732421873	0		-0.3595772705078125	5.93478662109375	0		
0.009355594635009765	-0.003379270076751709	0		0.54071240234375	-2.86403173828125	0		-0.9957154541015625	0.16181825256347657	0		-0.08812828063964843	-3.42444873046875	0		1.8293856201171874	-1.6615670166015626	0		3.127076171875	-0.5402176513671875	0		4.475984375	-0.14354254150390625	0		5.88977978515625	0.4270396728515625	0		-0.30849066162109373	5.94991162109375	0		
0.014026716232299804	2.2276699542999267E-4	0		0.5482830200195312	-2.856494140625	0		-0.9878776245117188	0.1784351348876953	0		-0.053698429107666014	-3.42620654296875	0		1.879064453125	-1.6506082763671874	0		3.11235400390625	-0.484538330078125	0		4.46902685546875	-0.10902930450439453	0		5.89666064453125	0.4291731872558594	0		-0.308545654296875	5.95059130859375	0		
0.014758984565734863	-1.8272699415683747E-4	0		0.5380269775390625	-2.846786865234375	0		-0.993076904296875	0.18314158630371094	0		-0.09793743896484375	-3.413060791015625	0		1.8671732177734375	-1.6149302978515625	0		3.08713037109375	-0.47974725341796876	0		4.46301171875	-0.08852435302734375	0		5.8999736328125	0.41587921142578127	0		-0.2896318664550781	5.94597900390625	0		
0.011550958633422852	-0.004593623161315918	0		0.535746826171875	-2.85122314453125	0		-0.929126220703125	0.1909351348876953	0		-0.039346691131591796	-3.42722705078125	0		1.87508251953125	-1.606523681640625	0		3.09639892578125	-0.4443858337402344	0		4.458107421875	-0.06802527618408204	0		5.88910986328125	0.404783203125	0		-0.3227115478515625	5.939943359375	0		
0.01249560546875	-0.005106308937072754	0		0.5386826782226563	-2.8497666015625	0		-1.0099893188476563	0.20643692016601561	0		-0.10135139465332031	-3.4199677734375	0		1.8382564697265624	-1.586593994140625	0		3.0835478515625	-0.42776416015625	0		4.44435888671875	-0.043407814025878906	0		5.88196484375	0.40919998168945315	0		-0.28762677001953124	5.945017578125	0		
0.01353682804107666	-0.005668692111968994	0		0.542777587890625	-2.846365234375	0		-1.003912109375	0.20881129455566405	0		-0.03739474105834961	-3.428301513671875	0		1.8435941162109375	-1.5632039794921875	0		3.08710400390625	-0.3863489074707031	0		4.44271923828125	-0.017927732467651367	0		5.88325439453125	0.37535598754882815	0		-0.35473773193359376	5.93328857421875	0		
0.01871246910095215	-0.0023259100914001466	0		0.5111440734863282	-2.830562744140625	0		-0.9896423950195312	0.22002859497070312	0		-0.08217789459228515	-3.42534765625	0		1.8071993408203124	-1.5263232421875	0		3.077396484375	-0.3737786254882812	0		4.431177734375	0.008685644149780274	0		5.88337158203125	0.3796632080078125	0		-0.32157699584960936	5.94228271484375	0		
0.019910614013671876	-0.002974148988723755	0		0.5404031982421875	-2.832539794921875	0		-0.9884501342773437	0.219353515625	0		-0.043769325256347656	-3.416451171875	0		1.848642578125	-1.51041357421875	0		3.08212939453125	-0.3313853149414063	0		4.42663232421875	0.029226520538330077	0		5.88701806640625	0.3666196594238281	0		-0.3556076965332031	5.93605322265625	0		
0.0032843821048736573	0.006561583042144776	0		0.5069466247558594	-2.817777587890625	0		-0.9831594848632812	0.22258360290527343	0		-0.10731103515625	-3.410345458984375	0		1.8034652099609374	-1.4684576416015624	0		3.05374755859375	-0.3025885314941406	0		4.410296875	0.06292794799804688	0		5.8752041015625	0.39215380859375	0		-0.33563278198242186	5.93112548828125	0		
0.017491144180297853	-3.0734699964523314E-4	0		0.5602881469726563	-2.8250947265625	0		-0.9927675170898438	0.23195635986328125	0		-0.04397772216796875	-3.4208134765625	0		1.7880855712890624	-1.4468773193359374	0		3.042359375	-0.2769960021972656	0		4.4038056640625	0.08152651977539062	0		5.8695439453125	0.36047097778320314	0		-0.33464105224609375	5.93039697265625	0		
-0.057301246643066406	-0.007123723030090332	0		0.5148889770507813	-2.81323046875	0		-0.99149462890625	0.2311632385253906	0		-0.10235297393798828	-3.409827880859375	0		1.7777957763671874	-1.4193641357421876	0		3.065865478515625	-0.26081845092773437	0		4.39547412109375	0.1131690673828125	0		5.87466552734375	0.3441056823730469	0		-0.31758383178710936	5.93944873046875	0		
0.028033977508544923	-0.0028872718811035155	0		0.549419189453125	-2.80834326171875	0		-0.9770985717773437	0.24218724060058594	0		-0.09374425506591796	-3.401671142578125	0		1.7846527099609375	-1.3790574951171874	0		3.048693359375	-0.21613636779785156	0		4.40604638671875	0.13860728454589843	0		5.8699873046875	0.3678859558105469	0		-0.33764645385742187	5.94492724609375	0		
-0.05075299835205078	-0.004693199157714844	0		0.5419974365234375	-2.797956298828125	0		-0.9867662353515625	0.2514809265136719	0		-0.030375808715820313	-3.41317822265625	0		1.7892396240234374	-1.358719482421875	0		3.0211455078125	-0.1993196563720703	0		4.40151708984375	0.15925376892089843	0		5.8643037109375	0.33812884521484377	0		-0.3529779052734375	5.93533056640625	0		
0.012573508262634278	0.006803752899169922	0		0.5703731079101563	-2.801993896484375	0		-0.9275557861328125	0.2549466705322266	0		-0.041791450500488284	-3.403791748046875	0		1.7880638427734374	-1.314300048828125	0		3.043692626953125	-0.17007904052734374	0		4.38691796875	0.17904960632324218	0		5.85663037109375	0.3465631103515625	0		-0.33336346435546876	5.9293125	0		
-0.06330017852783203	0.007950292110443116	0		0.5119666137695312	-2.782997314453125	0		-0.92646923828125	0.2541030731201172	0		-0.04920513153076172	-3.390449462890625	0		1.7866229248046874	-1.28686181640625	0		3.045146728515625	-0.14256121826171875	0		4.391234375	0.19765571594238282	0		5.860916015625	0.3305104370117187	0		-0.2845880126953125	5.9459580078125	0		
0.011671923637390136	0.001336441993713379	0		0.5531898193359375	-2.791158935546875	0		-0.9214115600585937	0.25721963500976563	0		-0.09480035400390625	-3.387653564453125	0		1.72940576171875	-1.23375048828125	0		3.02871044921875	-0.09880400085449219	0		4.3946240234375	0.22931207275390625	0		5.86165869140625	0.3302118225097656	0		-0.3181991271972656	5.93958056640625	0		
0.018712432861328124	0.00753978681564331	0		0.5147727661132813	-2.76237060546875	0		-0.9254195556640625	0.2614547119140625	0		-0.036393775939941406	-3.3800498046875	0		1.7879730224609376	-1.1929625244140625	0		3.023761962890625	-0.09215377807617188	0		4.39777978515625	0.24800875854492188	0		5.8574716796875	0.3543509826660156	0		-0.33394876098632814	5.9300048828125	0		
0.01656101989746094	0.0038707499504089357	0		0.5620357666015625	-2.755548583984375	0		-0.9305060424804688	0.2657200012207031	0		-0.10588648986816407	-3.356948486328125	0		1.7324205322265624	-1.1548302001953126	0		3.045134033203125	-0.050772243499755856	0		4.3898095703125	0.26286849975585935	0		5.85154736328125	0.32497198486328127	0		-0.34781488037109376	5.91842529296875	0		
-0.059618839263916014	0.005065225124359131	0		0.5381924438476563	-2.75088525390625	0		-0.9406160888671875	0.27506494140625	0		-0.050659305572509764	-3.352251708984375	0		1.74777783203125	-1.117486083984375	0		3.04320458984375	-0.028094329833984376	0		4.39380078125	0.28162225341796876	0		5.84556982421875	0.29564877319335936	0		-0.36276611328125	5.90687890625	0		
